<svg fill="none" height="21" viewBox="0 0 21 21" width="21" xmlns="http://www.w3.org/2000/svg" xmlns:xlink="http://www.w3.org/1999/xlink"><linearGradient id="a"><stop offset="0" stop-color="#4ca2cc"/><stop offset="1" stop-color="#4cc63f"/></linearGradient><linearGradient id="b" gradientUnits="userSpaceOnUse" x1="13.2097" x2="13.2097" xlink:href="#a" y1="3.0484" y2="12.9839"/><linearGradient id="c" gradientUnits="userSpaceOnUse" x1="9.82255" x2="9.82255" xlink:href="#a" y1="1.69354" y2="15.2419"/><linearGradient id="d" gradientUnits="userSpaceOnUse" x1="7.3387" x2="7.3387" xlink:href="#a" y1="15.9193" y2="20.2097"/><linearGradient id="e" gradientUnits="userSpaceOnUse" x1="18.5161" x2="18.5161" xlink:href="#a" y1="15.9193" y2="20.2097"/><clipPath id="f"><path d="m0 0h21v21h-21z"/></clipPath><g clip-path="url(#f)"><path d="m5.41937 3.0484h15.58063v5.08891 1.93859.537l-.1129.5645-.3387 1.1291-.2258.3387-.3387.2258-.4047.1129h-12.24047z" fill="url(#b)"/><path d="m.903198 1.69354h3.444722l1.44193 6.89737 1.38765 6.65099h5.2901 6.2743" stroke="url(#c)" stroke-linecap="round" stroke-linejoin="round" stroke-width="1.80645"/><path d="m7.3387 20.2097c1.18474 0 2.14516-.9605 2.14516-2.1452s-.96042-2.1452-2.14516-2.1452-2.14516.9605-2.14516 2.1452.96042 2.1452 2.14516 2.1452z" fill="url(#d)"/><path d="m18.5161 20.2097c1.2471 0 2.2581-.9605 2.2581-2.1452s-1.011-2.1452-2.2581-2.1452-2.258.9605-2.258 2.1452 1.0109 2.1452 2.258 2.1452z" fill="url(#e)"/></g></svg>