<svg fill="none" height="25" viewBox="0 0 25 25" width="25" xmlns="http://www.w3.org/2000/svg"><path clip-rule="evenodd" d="m12.5 1.56241c6.0396 0 10.9376 4.898 10.9376 10.93759 0 6.0396-4.898 10.9376-10.9376 10.9376-6.03962 0-10.93762-4.898-10.93762-10.9376 0-6.03959 4.898-10.93759 10.93762-10.93759zm-1.1718 15.62579v-3.5164h-3.51646c-.64361 0-1.17179-.5265-1.17179-1.1718 0-.6454.52643-1.1718 1.17179-1.1718h3.51646v-3.51648c0-.64537.5264-1.17179 1.1718-1.17179s1.1718.52818 1.1718 1.17179v3.51648h3.5165c.6453 0 1.1717.5264 1.1717 1.1718 0 .6453-.5281 1.1718-1.1717 1.1718h-3.5165v3.5164c0 .6436-.5264 1.1718-1.1718 1.1718s-1.1718-.5264-1.1718-1.1718z" fill="#757f8f" fill-rule="evenodd"/></svg>