<svg fill="none" height="23" viewBox="0 0 23 23" width="23" xmlns="http://www.w3.org/2000/svg" xmlns:xlink="http://www.w3.org/1999/xlink"><clipPath id="a"><path d="m0 0h23v23h-23z"/></clipPath><g clip-path="url(#a)"><path d="m1.69811 8.65462c.07132.00004.14263.00002.21394-.00006.19257-.00003.38512.00075.57768.0017.20162.00084.40325.00092.60487.00108.38134.00042.76267.00152 1.14401.00288.43434.00151.86867.00224 1.30301.00292.89304.00141 1.78607.00378 2.6791.00678-.02297.20204-.04774.39436-.10363.59027-.01169.04155-.02337.0831-.03542.1259-.01254.04376-.02508.08752-.038.13261-.02649.09484-.05296.18968-.07941.28453-.04153.14792-.08326.29577-.12541.44357-.04086.1436-.08091.2875-.12087.4314-.01263.0435-.02526.087-.03828.1318-.10268.3733-.16441.7776-.00225 1.1433.17182.3.36846.4734.6905.5982.3902.085.72086-.0299 1.09374-.1439.05904-.0178.1181-.0355.17716-.0531.12334-.037.24656-.0744.36975-.112.1569-.0479.314-.095.4712-.1419.1218-.0365.2436-.0732.3653-.1101.0858-.0259.1716-.0516.2574-.0773.3989-.1223.7388-.233 1.0264-.548.0656-.0656.1315-.1309.1976-.196.0745-.0741.1491-.1482.2236-.2223.037-.0367.0741-.0734.1123-.1112.1945-.1938.3811-.3907.56-.599.1232-.1395.256-.2687.3889-.39881.2473-.24443.2473-.24443.4801-.50256.0325-.03716.0325-.03716.0656-.07507.0621-.0718.1226-.14504.1823-.21897.2175-.24767.3665-.39988.709-.4317.12-.00183.238-.00107.3577.0021.0662-.00008.1324-.00038.1986-.00088.1783-.00071.3565.00162.5348.00457.1874.00261.3748.00248.5622.0027.3145.00074.629.00331.9435.00716.4026.00492.8053.00695 1.2079.00801.3476.00093.6952.00304 1.0428.00541.111.00073.2221.00132.3332.00191.175.00102.3501.00277.5251.00507.0639.00075.1278.00128.1917.00157.4396.00221.8986.00726 1.24.32032.0314.02745.0628.0549.0951.08318.2463.30947.2963.61791.2933 1.00439.0004.0474.0007.0949.0011.1438.0009.1583.0005.3166.0002.4748.0004.1139.0008.2277.0014.3415.001.2766.0013.5531.0011.8297-.0002.225 0 .4499.0003.6749.0001.0321.0002.0642.0002.0972.0001.0652.0002.1304.0003.1956.001.6106.0008 1.2212.0003 1.8319-.0005.5578.0005 1.1155.0022 1.6733.0018.5737.0025 1.1473.0022 1.7209-.0002.3217 0 .6434.0013.9651.0012.3026.0009.6052-.0002.9078-.0002.1108 0 .2216.0007.3325.007 1.11.007 1.11-.304 1.4981-.2822.2703-.545.3731-.9359.371-.0353.0002-.0707.0004-.107.0006-.1188.0004-.2376.0003-.3564.0001-.0859.0002-.1717.0004-.2576.0007-.2362.0006-.4725.0007-.7088.0007-.2547.0001-.5094.0006-.7641.0012-.557.001-1.1141.0013-1.6712.0016-.3477.0001-.6955.0004-1.0433.0007-.9626.0009-1.9253.0017-2.888.0018-.0307 0-.0615 0-.0933 0-.1247 0-.2495 0-.3743 0-.0939.0001-.1879.0001-.2818.0001-.0465 0-.0465 0-.094 0-.9751.0001-1.9501.0011-2.9251.0027-1.0954.0019-2.19078.0029-3.28618.003-.57999 0-1.15998.0004-1.73998.0017-.49385.0011-.9877.0014-1.48155.0007-.25199-.0003-.50395-.0003-.75593.0007-.23075.001-.46148.0009-.69223-.0001-.0834-.0001-.16681.0001-.25021.0007-.46882.0034-.891382.0058-1.254985-.332-.2935478-.3071-.3393455-.6195-.3371335-1.0282-.0002736-.0477-.0005473-.0953-.0008292-.1444-.0007469-.1594-.0005325-.3188-.0003168-.4782-.0003298-.1144-.0007155-.2288-.001153-.3431-.0008948-.2784-.0011498-.5567-.0010696-.835.0000588-.2263-.0001126-.4526-.0004459-.6789-.0000943-.0653-.0001886-.1305-.0002828-.1958-.0000468-.0325-.0000937-.065-.000142-.0984-.0008487-.6141-.000802-1.2281-.0004954-1.8422.0002503-.5611-.0006849-1.1223-.0021726-1.6835-.001517-.5768-.0021966-1.1536-.0019892-1.7303.0001007-.3236-.0001325-.6472-.001253-.9708-.0010449-.3044-.0009159-.6088-.0000032-.9131.0001532-.1116-.0000755-.2232-.000718-.3348-.000818-.1526-.0002439-.3051.0006712-.4577-.0005623-.044-.0011247-.08787-.0017041-.13313.0050963-.3977.1376791-.70887.4226881-.98831.366816-.32455.847384-.29107 1.305024-.28764zm1.79634 2.51018c-.10921.1503-.10035.2808-.0916.4587.00122.047.00122.047.00246.095.00211.0769.00533.1538.00877.2307-.06124.0076-.06124.0076-.12371.0153-.34596.0703-.62146.3791-.81965.6585-.23181.3864-.2371.8258-.15319 1.2603.12866.4186.44087.7799.82702.9858.2366.0896.47671.1283.72621.1614.23004.0373.34062.1082.48668.2879.08373.1535.13368.2655.13757.4408-.09551.2865-.26347.6329-.54187.7721-.22426.0354-.39524.0259-.60083-.073-.21281-.1926-.2988-.3471-.33972-.629-.02629-.1663-.03881-.2302-.14599-.3649-.16822-.0748-.26499-.0601-.4408-.0113-.10774.0775-.1319.1178-.15424.2501-.00064.4874.13324.873.46869 1.2323.20826.1909.3973.3018.67383.3594-.00234.065-.00234.065-.00474.1313-.00121.0567-.00243.1135-.00368.1719-.00156.0563-.00313.1126-.00474.1706.01381.1628.03175.223.14793.3348.15893.0518.23761.058.39306-.0056.11895-.0991.14476-.1624.19092-.3088.00189-.0824.00185-.1648 0-.2471.00948-.1313.00948-.1313.04492-.2471.10516-.0814.20751-.1234.33078-.1726.32369-.142.52206-.4554.6575-.7707.14565-.4521.11557-.898-.10124-1.3235-.24851-.3968-.5675-.6636-1.0218-.7879-.10084-.0165-.20194-.0314-.30322-.0449-.23564-.0321-.37669-.0601-.5503-.2246-.13741-.2132-.20902-.4318-.16003-.6859.07567-.2593.18514-.4361.42447-.5768.21279-.0897.43541-.0629.64804.0133.27779.1874.3694.422.43237.7384.00895.0509.00895.0509.01807.1028.03511.111.07216.1583.16443.2285.17382.0221.2729.0274.42114-.0702.12498-.1875.13023-.332.10125-.5483-.09629-.4659-.31705-.8084-.70682-1.0815-.18611-.1142-.18611-.1142-.39956-.1418.00157-.0363.00313-.0726.00474-.11.00182-.072.00182-.072.00368-.1455.00157-.0474.00313-.0948.00474-.1437-.01883-.2001-.09784-.3144-.23777-.4543-.1683-.0187-.27212-.0295-.41377.0691zm10.11685.8293c-.0504.1009-.0516.1578-.0535.2697-.0008.0371-.0015.0741-.0022.1123-.002.1694-.0039.3389-.0049.5084-.0007.0894-.002.1787-.0037.2681-.0024.1289-.0034.2577-.0041.3866-.001.0398-.002.0797-.0031.1207.0002.0375.0003.0749.0004.1135-.0003.0328-.0007.0655-.0011.0993.0471.1689.1063.2224.2519.3226.1981.0341.3946.0307.5952.0291.0611.0003.1223.0007.1835.0012.1659.001.3317.0006.4976-.0001.1737-.0006.3474-.0001.5211.0003.2917.0004.5833-.0001.875-.0012.3371-.0012.6741-.0008 1.0112.0004.2896.001.5791.0012.8687.0006.1729-.0004.3457-.0004.5186.0003.1625.0007.3251.0002.4876-.0011.088-.0004.176.0003.264.001.3038-.0004.3038-.0004.5694-.1327.0748-.119.105-.1754.1052-.3134.0006-.0361.0012-.0723.0017-.1095-.0006-.0384-.0011-.0768-.0018-.1164.0002-.0601.0002-.0601.0004-.1213-.0001-.0845-.0007-.1689-.0018-.2533-.0015-.129-.0009-.2578-.0001-.3868-.0003-.0822-.0007-.1644-.0013-.2466.0003-.0384.0005-.0768.0007-.1164-.0036-.1833-.0117-.2777-.1119-.436-.1461-.1387-.2296-.1397-.4267-.1403-.0774-.0004-.0774-.0004-.1563-.0008-.0853-.0001-.0853-.0001-.1723-.0002-.0603-.0002-.1206-.0004-.1809-.0006-.164-.0006-.328-.0009-.492-.0011-.1024-.0001-.2049-.0003-.3073-.0005-.3205-.0006-.641-.0011-.9614-.0013-.3701-.0002-.7401-.0009-1.1101-.0022-.286-.001-.5719-.0015-.8579-.0015-.1708-.0001-.3416-.0003-.5124-.0011-.1607-.0008-.3214-.0009-.4822-.0005-.087.0001-.174-.0006-.261-.0012-.052.0003-.104.0005-.1575.0008-.0676-.0001-.0676-.0001-.1365-.0002-.1454.0196-.2302.0656-.3482.1514zm-6.78316 1.6172c-.06488.1298-.06185.2155-.04492.3594.09064.1279.16325.2113.3207.2454.1215.0085.24116.0096.36296.0083.06917.0006.06917.0006.13974.0012.15231.001.30456.0003.45688-.0005.1059.0002.2118.0004.3177.0007.22189.0003.44377-.0002.66566-.0012.28446-.0013.56887-.0005.85333.0008.21871.0008.43731.0006.65601 0 .1048-.0002.2097 0 .3146.0005.1466.0006.2931-.0003.4397-.0015.0651.0007.0651.0007.1314.0014.205-.0033.2987-.0089.4672-.1346.111-.1573.1125-.2462.0851-.4349-.0791-.1431-.1123-.1722-.2696-.2247-.0639-.0043-.128-.0062-.192-.0066-.0392-.0003-.0784-.0006-.1187-.0009-.0429-.0002-.0857-.0003-.1299-.0004-.0452-.0003-.0904-.0006-.137-.0009-.1499-.0009-.2997-.0014-.4496-.0019-.0511-.0001-.1023-.0003-.155-.0005-.2705-.001-.5411-.0016-.81164-.002-.27972-.0005-.55942-.0021-.83913-.0038-.21488-.0012-.42976-.0016-.64465-.0018-.10313-.0002-.20626-.0007-.30939-.0015-.14421-.0011-.28839-.0011-.43261-.0008-.064-.0008-.064-.0008-.12929-.0017-.23918.0019-.37659.0172-.54755.2025zm-.04492 2.4258c-.03315.1768-.01623.2444.08142.3959.15646.1564.29324.1485.50666.1496.03771 0 .07541-.0001.11425-.0001.0401.0001.0802.0002.12151.0004.13491.0004.26982.0004.40473.0005.0965.0002.19301.0004.28951.0007.26258.0006.52515.0009.78772.0011.16396.0001.32792.0003.49188.0005.5128.0006 1.0255.001 1.5383.0012.5923.0002 1.1847.001 1.777.0023.4576.001.9152.0014 1.3728.0015.2734 0 .5468.0003.8203.0011.2571.0007.5143.0008.7715.0004.0944 0 .1888.0002.2832.0006.1289.0006.2577.0004.3866-.0001.0374.0003.0748.0007.1133.0011.2196-.0019.371-.0304.5612-.1524.0705-.141.0607-.2488.0449-.4043-.0886-.1218-.1598-.2091-.311-.2452-.107-.0085-.212-.0093-.3194-.0079-.0409-.0004-.0819-.0007-.1241-.0011-.1372-.0009-.2744-.0002-.4116.0005-.0984-.0003-.1967-.0007-.2951-.0012-.2672-.001-.5344-.0006-.8016.0001-.2795.0006-.5589.0001-.8384-.0003-.4994-.0004-.9988.0003-1.4982.0014-.4527.001-.9055.0009-1.3582-.0002-.5258-.0012-1.0517-.0016-1.57751-.001-.27832.0004-.55664.0004-.83496-.0003-.26165-.0007-.52327-.0002-.78492.0011-.0961.0003-.19221.0002-.28831-.0003-.13105-.0006-.26202.0002-.39306.0013-.03817-.0005-.07634-.001-.11567-.0015-.2464.0041-.36018.0469-.51475.2546zm11.27538 0c-.0331.1768-.0162.2444.0814.3959.1709.1709.3531.151.5807.1523.0341.0003.0681.0005.1032.0008.0721.0004.1442.0007.2163.0009.1097.0004.2194.0018.3291.0032.0702.0003.1404.0005.2105.0007.0326.0006.0652.0011.0987.0017.2118-.0009.3569-.0384.5364-.1512.0705-.141.0607-.2488.0449-.4043-.089-.1214-.1603-.209-.3111-.2456-.1042-.0087-.2062-.0101-.3108-.0088-.038-.0002-.0761-.0005-.1153-.0007-.0802-.0001-.1604.0003-.2405.0012-.1225.0012-.2448 0-.3673-.0014-.0781.0001-.1562.0004-.2343.0009-.0365-.0005-.0729-.0009-.1105-.0014-.2448.005-.3575.0504-.5114.2558zm-2.4707 2.5606c-.112.0576-.2244.1145-.3369.1712-.0514.0263-.1028.0525-.1558.0795-.3039.1422-.6401.1582-.9674.0827-.2505-.0959-.4015-.2529-.5693-.4584-.1687-.2174-.1687-.2174-.4188-.3018-.1564.0112-.1564.0112-.2668.0927-.1013.158-.1006.2381-.0701.4239.2667.5326.6994.8471 1.2578 1.0332.7907.0551 1.3682-.1094 2.0472-.5136.4091-.2415.8101-.3742 1.2873-.2739.3716.1207.5741.3647.7534.6977.1296.1058.1296.1058.2919.0814.1502-.0264.1502-.0264.2415-.0871.0849-.1415.0981-.2323.0955-.3986-.0739-.1477-.1687-.2742-.2696-.4043-.0268-.0399-.0537-.0797-.0814-.1208-.3305-.3494-.7791-.553-1.258-.5743-.5883-.0078-1.0672.1988-1.5805.4705zm-13.70116.5839c-.0337.1592-.0337.1592 0 .3145.08387.1062.14917.1644.26953.2246.10022.0045.20059.0061.30092.0063.03128.0001.06257.0003.0948.0004.10536.0004.21071.0005.31606.0005.07533.0003.15066.0005.22599.0007.20503.0006.41006.0009.61509.0011.12803.0001.25606.0003.38409.0005.40039.0006.80078.0011 1.20116.0012.46254.0002.92507.001 1.3876.0023.35728.001.71456.0015 1.07184.0015.21349.0001.42698.0003.64048.0011.20084.0008.40167.0009.60251.0005.07372-.0001.14744.0001.22116.0006.10065.0005.20126.0003.30191-.0002.05632.0001.11265.0001.17068.0002.15978-.0181.24451-.0552.37194-.1515.0705-.141.0608-.2488.0449-.4043-.1164-.1508-.18372-.2168-.37295-.2528-.05681-.0001-.11362-.0002-.17215-.0003-.03177-.0003-.06354-.0007-.09627-.0011-.1062-.0008-.21233-.0001-.31853.0006-.07624-.0003-.15247-.0007-.2287-.0012-.20689-.001-.41375-.0007-.62063.0001-.21651.0005-.43302 0-.64953-.0004-.36359-.0004-.72716.0002-1.09075.0012-.42036.0013-.84069.0009-1.26104-.0004-.36091-.001-.72181-.0011-1.08272-.0005-.21555.0003-.4311.0004-.64665-.0004-.20266-.0006-.40529-.0002-.60794.0011-.07437.0003-.14875.0002-.22312-.0003-.10155-.0006-.203.0002-.30454.0013-.08521.0001-.08521.0001-.17215.0003-.18913.036-.25604.1027-.37299.2528z" fill="#747f8e"/><path d="m17.045 1.18199c.216.15888.3889.35642.5653.55644.1642.18498.3412.35687.5195.52828.2583.2526.4639.5182.4694.89518-.0303.48341-.2572.75832-.5996 1.08321-.2193.21141-.4304.42371-.6287.65497-.1235.14026-.2569.27002-.3904.4007-.2433.24005-.2433.24005-.4717.49414-.173.20481-.366.38958-.5564.57802-.134.13306-.265.26593-.387.41026-.1726.20432-.3651.38867-.555.57664-.191.18969-.374.38369-.5456.59133-.3099-.25722-.6007-.53227-.8619-.83948-.1529-.1787-.3187-.34287-.4857-.50818-.1906-.18864-.375-.37818-.5482-.5831-.1817-.20419-.3801-.39327-.5749-.58487.0653-.1505.1475-.24729.2645-.36148.0348-.03428.0695-.06856.1054-.10388.0364-.03544.0727-.07088.1102-.10739.2283-.22328.4499-.44745.6579-.68984.1232-.13982.2563-.26921.3894-.39952.2433-.24004.2433-.24004.4717-.49414.173-.20481.366-.38958.5564-.57802.1593-.15828.3103-.31948.4552-.49115.1573-.17474.3266-.33812.4945-.50265.1148-.11321.2222-.22354.3225-.35017.3005-.371257.8272-.417483 1.2232-.1753z" fill="#b7c7d9"/><path d="m11.4551 5.92969c.1369.05994.2155.11984.3088.23584.1571.18631.3265.3568.4998.52783.1881.18618.3695.37327.5404.57556.1288.14311.2661.27731.4029.41272.5292.52427.5292.52427.7188.80859-.2685.29515-.5387.5872-.8227.86756-.1408.13907-.279.27842-.4071.42956-.1803.21285-.3811.40585-.5801.60095-.04.0394-.04.0394-.0807.0795-.0241.0236-.0482.0472-.0731.0715-.0629.0619-.0629.0619-.1027.1521-.3177-.1329-.556-.4501-.7749-.70751-.1519-.17788-.3168-.34099-.4829-.50537-.1888-.18681-.3717-.37387-.5421-.57785-.07629-.08432-.15477-.16252-.23688-.2411-.02698-.02603-.05396-.05205-.08176-.07887-.05437-.05212-.1092-.10376-.16453-.15488-.07535-.07246-.07535-.07246-.18766-.20512.01842-.21017.17534-.3229.32007-.46045.05413-.05267.10818-.10543.16214-.15828.0258-.02523.0516-.05046.07817-.07646.07765-.07759.14965-.15839.22015-.24255.1833-.21653.3884-.41192.5898-.61138.175-.17393.3445-.34978.5031-.53904.061-.07137.1258-.13725.193-.20285z" fill="#b7c7d9"/><path d="m8.89452 8.80469c.17152.02985.25622.054.37622.18249.02716.02872.05432.05745.0823.08704.07386.08239.14618.16581.21811.24988.15505.18035.3224.34662.49135.51379.1907.18871.3757.37801.5482.58381.1493.1665.3151.3179.4778.4712.097.113.097.113.097.2926-.3331.103-.6664.2053-.9999.3071-.1134.0347-.22671.0696-.33999.1046-.16301.0504-.32619.1002-.48941.1499-.05046.0157-.10091.0314-.1529.0476-.54418.1644-.54418.1644-.81696.0759-.09952-.0737-.12804-.1167-.16565-.2358-.02494-.3314.05776-.6176.1474-.935.02244-.0815.02244-.0815.04532-.1646.03955-.1434.0795-.2866.11964-.4298.04098-.14658.08144-.2933.12194-.44.07937-.28704.15925-.57393.23953-.86071z" fill="#b7c6d9"/><g fill="#b7c7d9"><path d="m18.957 4.22266c.1485.1484.143.33903.1488.54187-.0094.70355-.4111 1.12295-.8849 1.587-.0937.09355-.1809.18746-.2662.28848-.1761.2068-.3708.39455-.5638.58533-.1687.1674-.3301.33753-.481.5214-.1163.1262-.2043.19854-.3758.22409-.1693-.02419-.2409-.08145-.3622-.19935-.0732-.14646-.0659-.24159-.0449-.40429.0888-.13567.1993-.24577.3144-.35938.0297-.0297.0593-.05941.0899-.09002.0605-.06039.1212-.12057.1821-.18056.08-.08127.1541-.16466.2278-.25163.154-.17953.3205-.34474.4885-.51099.4577-.4381.4577-.4381.817-.95459.0992-.15049.2188-.26463.3476-.38991.1295-.12924.2457-.26696.3627-.40745z"/><path d="m19.0199.129334c.0237.01662.0474.033239.0719.050362.0398.025016.0797.050032.1207.075806.2605.260436.3799.574415.3875.937748-.0041.39657-.0809.68277-.3622.96862-.048.04378-.0965.08712-.146.12915-.0517-.05167-.1033-.10337-.1549-.15512-.0477-.04749-.0955-.09474-.1436-.14178-.1335-.13138-.2616-.26458-.3832-.40711-.1806-.20751-.3727-.40198-.5677-.595913-.0342-.034425-.0685-.068851-.1038-.10432-.0327-.032689-.0655-.065377-.0992-.099056-.0295-.029471-.0591-.058943-.0895-.089307-.0723-.073215-.0723-.073215-.1651-.114421.1122-.253428.31-.391488.5418-.5334474.3404-.128585.7825-.1122736 1.0933.0787884z"/></g></g></svg>