<svg fill="none" height="19" viewBox="0 0 19 19" width="19" xmlns="http://www.w3.org/2000/svg"><path clip-rule="evenodd" d="m17.0104 4.79166c-1.5878 0-2.875-1.28718-2.875-2.875 0-.51739.1367-1.002865.3759-1.42228-.2812-.058257-.5773-.10235-.89-.136227-1.0945-.118584-2.4742-.118584-4.23423-.118575h-.08664c-1.76007-.000009-3.13968-.000009-4.23422.118575-1.11698.121018-2.02201.372399-2.79473.933817-.46781.33988-.8792.75128-1.21909 1.21909-.561417.77272-.812797 1.67775-.933815 2.79473-.11858447 1.09454-.11858441 2.47415-.11857483 4.23413v.08673c-.00000958 1.76005-.00000964 3.13965.11857483 4.23415.121018 1.1171.372398 2.022.933815 2.7948.33989.4678.75128.8792 1.21909 1.219.77272.5615 1.67775.8129 2.79473.9339 1.09452.1186 2.47415.1186 4.23413.1186h.08682c1.75994 0 3.13964 0 4.23414-.1186 1.117-.121 2.022-.3724 2.7948-.9339.4677-.3398.8791-.7512 1.219-1.219.5614-.7728.8128-1.6777.9339-2.7948.1185-1.0945.1185-2.4741.1185-4.23406v-.08682c0-1.75998 0-3.13961-.1185-4.23413-.034-.31271-.0781-.60878-.1363-.89001-.4194.23921-.9049.37588-1.4223.37588zm-2.5584 1.40827c.3564.17482.5036.60545.3288.96183l-1.3996 2.85304c-.98 1.9977-3.86016 1.9002-4.70272-.1593-.37289-.91167-1.64784-.95489-2.08162-.07054l-1.39948 2.85294c-.17482.3564-.60545.5036-.96183.3288-.35639-.1748-.50358-.6055-.32876-.9619l1.39948-2.85291c.97997-1.99777 3.86019-1.90022 4.70273.15927.3729.91164 1.6479.95484 2.0816.07053l1.3995-2.853c.1749-.35639.6054-.50358.9619-.32876z" fill="#757f8f" fill-rule="evenodd"/><path d="m15.0938 1.91667c0 1.05854.858 1.91666 1.9166 1.91666s1.9167-.85812 1.9167-1.91666c0-1.05855-.8581-1.91667-1.9167-1.91667s-1.9166.85812-1.9166 1.91667z" fill="#b8c7da"/></svg>