<svg fill="none" height="21" viewBox="0 0 23 21" width="23" xmlns="http://www.w3.org/2000/svg" xmlns:xlink="http://www.w3.org/1999/xlink"><linearGradient id="a"><stop offset="0" stop-color="#67b270"/><stop offset="1" stop-color="#4ca2cc"/></linearGradient><linearGradient id="b" gradientUnits="userSpaceOnUse" x1="13.4686" x2="13.4686" xlink:href="#a" y1="0" y2="18.0084"/><linearGradient id="c" gradientUnits="userSpaceOnUse" x1="6.99454" x2="6.99454" xlink:href="#a" y1="4.58727" y2="20.1071"/><path d="m23 7.99321c0-4.4075-4.2758-7.99321-9.5313-7.99321-5.25568 0-9.53151 3.58575-9.53151 7.99321 0 4.40749 4.27583 7.99319 9.53151 7.99319.4419 0 .8853-.0256 1.3212-.0761 2.0243 1.286 3.5187 1.9899 4.4449 2.0928.0322.0035.0646.0053.0964.0053.1461.0002.2899-.036.4186-.1053.1286-.0693.238-.1695.3182-.2916.1833-.2781.1952-.6309.032-.919-.0076-.0137-.7224-1.3178-.5162-2.5635 2.1746-1.5217 3.4162-3.7456 3.4162-6.13579zm-12.1199 1.2072c-.7798 0-1.41186-.63216-1.41186-1.4119 0-.77979.63206-1.41191 1.41186-1.41191.7797 0 1.412.63216 1.412 1.41191 0 .77974-.6322 1.4119-1.412 1.4119zm5.1773 0c-.78 0-1.4121-.63216-1.4121-1.4119 0-.77979.6321-1.41191 1.4121-1.41191.7797 0 1.4119.63216 1.4119 1.41191 0 .77974-.6322 1.4119-1.4119 1.4119z" fill="url(#b)"/><path d="m5.9508 14.3883c-.94574-.783-1.69125-1.6997-2.21552-2.7243-.55279-1.0803-.83303-2.22948-.83303-3.41556 0-1.18612.28028-2.33526.83303-3.41554.04232-.08268.08663-.16435.13176-.24563-2.33446 1.33745-3.86704 3.56965-3.86704 6.09303 0 2.267 1.22122 4.369 3.35469 5.7829.39405 1.549-.52035 3.1879-.53001 3.2047-.02672.0471-.03989.1008-.03807.1549.00182.0542.01857.1068.0484.152.02984.0453.07161.0815.1207.1045s.10359.032.15748.026c1.0674-.1185 2.94705-1.2034 4.37102-2.1181.48357.0653.97099.0981 1.45896.098 1.87063 0 3.60863-.4784 5.04593-1.2947-.3217.026-.6443.0392-.967.0395-2.6583 0-5.16963-.8672-7.0713-2.4417z" fill="url(#c)"/></svg>